<?xml version="1.0" encoding="UTF-8"?>
<svg version="1.1" xmlns="http://www.w3.org/2000/svg" width="512" height="512">
<path d="M0 0 C8.36067127 7.34725657 14.35575185 15.45251661 16.67578125 26.47265625 C16.82045418 29.48185325 16.79861689 32.46318319 16.67578125 35.47265625 C17.87203125 35.55515625 19.06828125 35.63765625 20.30078125 35.72265625 C26.91525497 36.58440107 31.19454367 40.39785148 35.29296875 45.4296875 C41.64022238 54.80712718 42.75328986 65.94664192 43.0625 76.953125 C43.08883514 77.81545242 43.11517029 78.67777985 43.14230347 79.5662384 C43.24868618 83.17875748 43.35066559 86.79029481 43.40307617 90.40405273 C43.44630962 93.06804514 43.53228533 95.72795458 43.625 98.390625 C43.62701668 99.60180244 43.62701668 99.60180244 43.6290741 100.83744812 C43.83390257 105.59623916 44.68838749 107.95452005 48.11889648 111.34228516 C49.04508034 112.13875961 49.04508034 112.13875961 49.98997498 112.95132446 C52.44095928 115.16318023 53.66248394 117.69564294 55.05078125 120.66015625 C55.77394531 122.16642578 55.77394531 122.16642578 56.51171875 123.703125 C60.0429776 132.10467709 59.92135218 141.90884759 56.92578125 150.47265625 C52.5638514 160.86833576 46.13275885 167.71201494 36.0078125 172.52734375 C32.37994767 173.99793552 29.33759844 174.6003532 25.42578125 174.53515625 C23.56953125 174.50421875 23.56953125 174.50421875 21.67578125 174.47265625 C21.52882813 175.39304688 21.381875 176.3134375 21.23046875 177.26171875 C19.38199721 187.69389723 16.62947509 197.54211549 10.67578125 206.47265625 C11.60031066 206.46896908 12.52484007 206.46528191 13.47738552 206.461483 C35.98751188 206.37263048 58.49761545 206.30692746 81.00788021 206.26540756 C91.89374466 206.24479445 102.77949317 206.21669767 113.6652832 206.17089844 C123.15486291 206.13099249 132.64435863 206.10521435 142.13401991 206.09630227 C147.15736862 206.09109391 152.18047709 206.07887829 157.2037487 206.04973602 C161.93563856 206.02250762 166.66719009 206.01422626 171.39915085 206.02022552 C173.13211343 206.01912861 174.86508777 206.01121904 176.59798241 205.99583435 C188.64959914 205.89412298 197.72044151 206.92444739 206.8828125 215.41015625 C212.84696023 222.27087521 214.78892208 229.95351921 214.82295227 238.84634399 C214.83368523 240.77647842 214.83368523 240.77647842 214.84463501 242.74560547 C214.84747495 244.16455054 214.85018672 245.58349587 214.8527832 247.00244141 C214.85905246 248.50255489 214.86569967 250.00266683 214.87269592 251.5027771 C214.89368645 256.42241342 214.90409467 261.34204987 214.9140625 266.26171875 C214.91811214 267.95939525 214.92222912 269.65707159 214.92641258 271.35474777 C214.94545446 279.33335559 214.95968673 287.31195423 214.96802455 295.29058039 C214.97778891 304.48101142 215.00409163 313.67120108 215.04452544 322.86154711 C215.07475222 329.97768654 215.08949969 337.09375704 215.09280556 344.20995939 C215.09514884 348.45417532 215.10401446 352.69813312 215.12926674 356.94227982 C215.15266734 360.93968366 215.15673304 364.93666159 215.14650536 368.93411636 C215.14601276 370.39371666 215.15225094 371.8533388 215.1660614 373.31287384 C215.27065857 385.0315078 213.95418015 394.99565137 205.61328125 403.75 C199.23680846 409.41940423 193.67329151 411.62870144 185.17504883 411.58618164 C184.41383224 411.58632767 183.65261566 411.58647369 182.86833191 411.58662415 C180.35229645 411.58592749 177.83633503 411.57814663 175.3203125 411.5703125 C173.57582133 411.56844744 171.83132965 411.56702395 170.08683777 411.56602478 C165.49519403 411.56220651 160.90358192 411.55238209 156.31195068 411.5413208 C151.62659127 411.53109186 146.94122674 411.52652398 142.25585938 411.52148438 C133.06248387 411.51075922 123.86914014 411.49316798 114.67578125 411.47265625 C114.67578125 421.37265625 114.67578125 431.27265625 114.67578125 441.47265625 C117.78242188 441.43785156 120.8890625 441.40304687 124.08984375 441.3671875 C127.10822633 441.34377203 130.12659869 441.32556675 133.14501953 441.30786133 C135.23816478 441.29280156 137.33127861 441.27234954 139.42431641 441.24633789 C142.43790453 441.20983124 145.45107437 441.19290152 148.46484375 441.1796875 C149.39632233 441.16420364 150.3278009 441.14871979 151.2875061 441.13276672 C156.51951271 441.13142023 160.16344574 441.52081141 164.67578125 444.47265625 C169.54153791 449.44899829 171.43227904 453.45322886 171.98828125 460.34765625 C171.82343805 465.41900869 170.73645259 470.25262633 167.2109375 474.05078125 C162.76442619 477.83412095 160.26950611 478.59800701 154.54307938 478.60967064 C153.22607394 478.61474518 151.90906851 478.61981972 150.55215383 478.62504804 C149.07653765 478.62564977 147.60092142 478.62614884 146.12530518 478.6265564 C144.56867956 478.63056938 143.012055 478.63500733 141.4554317 478.63983595 C137.16173993 478.65182554 132.86805941 478.65745541 128.57435417 478.66201711 C123.94982029 478.66796415 119.32529993 478.67957619 114.70077515 478.69030762 C103.52462527 478.71485169 92.34847091 478.72946142 81.17230237 478.74236768 C78.01724698 478.74607806 74.86219205 478.75005141 71.70713711 478.75412035 C52.1271464 478.77935455 32.54715502 478.80141414 12.96715164 478.8138485 C8.42992399 478.81677834 3.89269635 478.81973998 -0.64453125 478.82275391 C-1.77227877 478.82349996 -2.90002629 478.82424601 -4.06194797 478.82501467 C-22.33868526 478.83767351 -40.61532538 478.87090254 -58.89201722 478.91255574 C-77.64353594 478.95494183 -96.39500488 478.97853966 -115.1465714 478.98376906 C-125.68008394 478.98718688 -136.21344462 478.99898578 -146.7469101 479.0318718 C-155.71612698 479.05982777 -164.68516088 479.07089124 -173.65441796 479.05967633 C-178.23242379 479.05447831 -182.81004617 479.05745039 -187.38799667 479.08214188 C-191.57780489 479.10455171 -195.76695238 479.10395946 -199.95677152 479.084938 C-201.47364116 479.08212632 -202.99055482 479.08780116 -204.5073534 479.10275094 C-217.26399022 479.22080896 -217.26399022 479.22080896 -221.18033028 476.05452824 C-230.97322343 464.26100595 -224.63883868 439.30720614 -223.77464914 424.68438077 C-223.59903697 421.70462326 -223.42620938 418.72470657 -223.25329578 415.74479145 C-222.84523644 408.7144495 -222.43222494 401.6844106 -222.01611328 394.65454102 C-221.58847028 387.42823018 -221.16971716 380.20144173 -220.75519001 372.97436768 C-220.39697709 366.73500044 -220.03305966 360.49598323 -219.66465938 354.25720924 C-219.44555625 350.54559642 -219.22859764 346.8338911 -219.01724625 343.12182808 C-218.78166332 338.98898582 -218.53418728 334.85693665 -218.28564453 330.72485352 C-218.21802917 329.51064728 -218.15041382 328.29644104 -218.08074951 327.04544067 C-217.29453104 314.32485069 -215.18570718 303.09317171 -205.41014099 294.14161682 C-198.59997811 288.69275919 -190.34118944 286.37206445 -182.0078125 284.3515625 C-180.95247818 284.0843187 -179.89714386 283.81707489 -178.80982971 283.54173279 C-175.46309739 282.69525042 -172.11290511 281.86381412 -168.76171875 281.03515625 C-132.76798403 273.88967398 -132.76798403 273.88967398 -103.35546875 254.234375 C-99.9168985 248.36015082 -100.06408124 240.9640673 -101.32421875 234.47265625 C-103.69332825 231.74526933 -106.0854042 230.25335276 -109.1796875 228.40234375 C-123.94793413 219.33959364 -133.23345512 202.57327477 -138.32421875 186.47265625 C-139.21621377 182.48668814 -139.88569344 178.53279579 -140.32421875 174.47265625 C-141.41734375 174.55515625 -142.51046875 174.63765625 -143.63671875 174.72265625 C-153.24189213 174.63795454 -160.41161303 170.38115815 -167.1640625 163.83203125 C-175.18057671 155.07620017 -177.9641902 145.76693924 -177.671875 133.97265625 C-176.62513549 123.43469441 -171.33989568 114.34323648 -163.32421875 107.47265625 C-162.66421875 107.47265625 -162.00421875 107.47265625 -161.32421875 107.47265625 C-161.34516602 106.28937744 -161.36611328 105.10609863 -161.38769531 103.88696289 C-161.46119802 99.41215572 -161.50641079 94.93739936 -161.54394531 90.4621582 C-161.56381376 88.5411679 -161.59091811 86.62023601 -161.62597656 84.69946289 C-162.11359504 57.2565818 -154.91301366 34.49478674 -135.88378906 14.05712891 C-106.00340745 -16.30036588 -34.95221976 -28.29465409 0 0 Z " fill="#010202" transform="translate(277.32421875,33.52734375)"/>
<path d="M0 0 C1.21075645 -0.00785502 1.21075645 -0.00785502 2.44597262 -0.01586872 C5.14808862 -0.03085899 7.85001509 -0.03157366 10.5521698 -0.03224182 C12.49064452 -0.03986395 14.42911622 -0.04829154 16.36758423 -0.0574646 C21.63212605 -0.07941097 26.89660978 -0.08820868 32.16119218 -0.09329104 C35.45101183 -0.0969344 38.74081626 -0.10317435 42.03063011 -0.11029243 C53.50982202 -0.13478725 64.98896872 -0.14783894 76.46818542 -0.15138245 C87.16496455 -0.1550179 97.86145677 -0.18491404 108.55814821 -0.22678703 C117.74471991 -0.26148666 126.93119652 -0.27693083 136.11783332 -0.27762848 C141.6033115 -0.27842139 147.08849743 -0.28716679 152.57390785 -0.31562614 C157.73438289 -0.34180103 162.89432324 -0.34401503 168.05483437 -0.3279705 C169.94624497 -0.32615558 171.83768629 -0.33285067 173.72903061 -0.34878922 C176.31681032 -0.36926303 178.90272147 -0.35869143 181.49047852 -0.34057617 C182.23417295 -0.35377614 182.97786738 -0.36697611 183.74409801 -0.38057607 C190.17587642 -0.27814619 194.94671695 2.32224645 199.50404388 6.8230229 C203.44824759 11.36342396 204.0608342 14.64558355 204.07615662 20.51017761 C204.08186676 21.81679352 204.0875769 23.12340942 204.09346008 24.46961975 C204.09470544 25.92106619 204.09583054 27.37251273 204.09684753 28.82395935 C204.10147604 30.34997172 204.10650074 31.87598293 204.1118927 33.4019928 C204.12501683 37.55091273 204.13146185 41.69981648 204.13590336 45.84875393 C204.13883446 48.44137477 204.14293937 51.03399119 204.14740753 53.6266098 C204.16108337 61.73977092 204.17074923 69.85292193 204.17460942 77.96609378 C204.17908856 87.32860121 204.19662938 96.69096254 204.22561002 106.05342555 C204.24723696 113.29175514 204.25731427 120.53004365 204.25865054 127.7684052 C204.25969797 132.09071929 204.26559246 136.41289604 204.28347015 140.73517609 C204.29996805 144.80307559 204.30209806 148.87073479 204.29333115 152.93865585 C204.29256165 154.42895273 204.29689197 155.91926262 204.3067894 157.40952682 C204.40560899 173.22046302 204.40560899 173.22046302 199.28727722 179.19993591 C198.7175116 179.6575531 198.14774597 180.11517029 197.56071472 180.58665466 C196.99610535 181.05716248 196.43149597 181.52767029 195.84977722 182.01243591 C191.1550169 185.10714527 187.14855971 185.52019502 181.57511902 185.50120544 C180.85262466 185.5014975 180.13013031 185.50178955 179.38574219 185.50209045 C177.01034817 185.50070305 174.63527233 185.48516991 172.25993347 185.46946716 C170.60798311 185.46573493 168.95603052 185.46288895 167.30407715 185.46089172 C162.96558981 185.4532718 158.62723732 185.43363747 154.2888031 185.41148376 C149.85797449 185.39098993 145.42712399 185.38188245 140.9962616 185.37181091 C132.3093509 185.35038998 123.62254961 185.31627392 114.93571472 185.27415466 C114.93024628 184.24511269 114.93024628 184.24511269 114.92466736 183.19528198 C114.88278572 176.04081107 114.81339945 168.88697827 114.72819519 161.7328949 C114.69781234 159.06447056 114.6787839 156.3966518 114.66471863 153.72801208 C114.64325921 149.88749184 114.59658937 146.04796903 114.54508972 142.20774841 C114.54324677 140.42454445 114.54324677 140.42454445 114.54136658 138.60531616 C114.42539645 132.01459426 114.16141213 127.48034454 109.93571472 122.27415466 C103.70475939 118.08826649 97.17819173 118.79584152 89.93571472 118.83665466 C88.67758972 118.81667419 87.41946472 118.79669373 86.12321472 118.77610779 C78.90877034 118.58961707 78.90877034 118.58961707 72.24821472 120.92649841 C66.07822977 127.19028381 66.46850829 133.7929188 66.42399597 142.11009216 C66.39706917 143.96182541 66.39706917 143.96182541 66.36959839 145.85096741 C66.31553041 149.78366203 66.2816097 153.71623549 66.24821472 157.64915466 C66.21667007 160.31977348 66.18054893 162.99030606 66.1446991 165.66087341 C66.05980563 172.19852519 65.99144061 178.73619271 65.93571472 185.27415466 C56.42554467 185.36705293 46.91553209 185.43801979 37.40500641 185.48140335 C32.98832104 185.50223095 28.57194732 185.53045958 24.15544128 185.57591248 C19.88899698 185.61954356 15.62285146 185.64332805 11.35620117 185.65366364 C9.7327708 185.66102417 8.10935579 185.67539747 6.48605347 185.69707489 C-11.12812453 185.92282473 -11.12812453 185.92282473 -17.56391907 179.86186218 C-22.05133438 174.88555876 -23.31218054 170.41530612 -23.33171082 163.84231567 C-23.34450577 161.89305679 -23.34450577 161.89305679 -23.3575592 159.90441895 C-23.35686023 158.47126758 -23.3559372 157.03811631 -23.35481262 155.60496521 C-23.36079943 154.0901303 -23.36760533 152.57529844 -23.37516785 151.06047058 C-23.39282055 146.95084009 -23.39752294 142.84129292 -23.39879942 138.73162818 C-23.4002221 136.16209852 -23.40449394 133.59258998 -23.40979385 131.02306557 C-23.42829239 122.05311872 -23.43646477 113.08323128 -23.43489075 104.11326599 C-23.4336897 95.76136143 -23.45478519 87.40971544 -23.48637807 79.05787629 C-23.51256015 71.8797782 -23.52325722 64.70176445 -23.52197993 57.523619 C-23.52147082 53.23983245 -23.52712544 48.9562757 -23.54833603 44.67253685 C-23.56775085 40.64147152 -23.567821 36.61085441 -23.55330276 32.57977295 C-23.5512175 31.1044073 -23.55589875 29.62901336 -23.56802368 28.15369606 C-23.6905021 12.21223129 -23.6905021 12.21223129 -17.65236473 5.76705456 C-12.16325238 0.84528126 -7.15281436 -0.023021 0 0 Z " fill="#518FDA" transform="translate(277.0642852783203,249.72584533691406)"/>
<path d="M0 0 C2.34051514 1.62571716 2.34051514 1.62571716 4.59667969 3.93139648 C5.45066345 4.78906113 6.30464722 5.64672577 7.18450928 6.53038025 C8.08783997 7.4678157 8.99117065 8.40525116 9.921875 9.37109375 C10.87118548 10.33414433 11.82191202 11.29580092 12.77398682 12.25611877 C15.27220482 14.7828588 17.75230924 17.32664514 20.22857666 19.87487793 C23.24391421 22.97186802 26.2784796 26.04999451 29.31196976 29.12918949 C31.67103992 31.52402883 34.02529927 33.92296279 36.37127686 36.33067322 C37.21265198 37.19149002 38.0540271 38.05230682 38.92089844 38.93920898 C39.66225037 39.70087875 40.40360229 40.46254852 41.16741943 41.24729919 C44.40232686 44.34120129 47.23185523 44.53316018 51.578125 44.45703125 C57.30014232 43.37723121 60.92498266 38.14566133 64.734375 34.0859375 C65.21277832 33.58682861 65.69118164 33.08771973 66.18408203 32.57348633 C67.5706183 31.11952615 68.93047215 29.64026275 70.2890625 28.16015625 C73 26 73 26 75.80078125 25.16015625 C81.05293124 26.53892578 83.96410421 30.46547653 87.5625 34.375 C89.03582939 35.95201287 90.51608022 37.52259404 92.00390625 39.0859375 C92.65174072 39.7876709 93.2995752 40.4894043 93.96704102 41.21240234 C96.2064111 43.18149898 98.22855792 43.9625515 101 45 C100.99920441 45.72503723 100.99840881 46.45007446 100.99758911 47.19708252 C100.99536738 54.08080086 101.02214635 60.96388451 101.0802784 67.84733963 C101.10916505 71.38505639 101.12742593 74.92211912 101.12011719 78.45996094 C101.11217661 82.54163969 101.152764 86.62165776 101.1953125 90.703125 C101.1816716 92.578862 101.1816716 92.578862 101.16775513 94.49249268 C101.31835744 103.73093287 103.27275887 112.31315423 110.05349731 119.03594971 C116.35656708 124.14313616 122.80025503 126.44902553 130.86303711 126.43237305 C131.61508423 126.4425647 132.36713135 126.45275635 133.14196777 126.46325684 C135.60383721 126.49321813 138.06531649 126.50262658 140.52734375 126.51171875 C142.2437111 126.528578 143.9600662 126.54672992 145.67640686 126.56611633 C150.17587454 126.61348727 154.67529252 126.6433799 159.17492676 126.66955566 C163.77361868 126.69942654 168.37213961 126.74593437 172.97070312 126.79101562 C181.98039865 126.87690195 190.99007681 126.94277306 200 127 C200 136.9 200 146.8 200 157 C197.04933594 157.03738281 194.09867187 157.07476562 191.05859375 157.11328125 C188.18571767 157.15955592 185.31296882 157.21076798 182.44018555 157.26245117 C180.45100706 157.29560684 178.46173661 157.32366765 176.47241211 157.34643555 C173.60490916 157.380154 170.73824183 157.43247823 167.87109375 157.48828125 C166.54723915 157.49786613 166.54723915 157.49786613 165.19664001 157.50764465 C158.7209508 157.66017861 153.79327084 158.659692 148.6875 162.9375 C142.92734016 169.97769536 145 173.20640705 145 184 C89.56 184 34.12 184 -23 184 C-23.375 121.625 -23.375 121.625 -23.47802734 101.90478516 C-23.51792046 96.08890344 -23.51792046 96.08890344 -23.56045532 90.27304077 C-23.57818143 87.67558258 -23.59270259 85.07828765 -23.60269165 82.48080444 C-23.61800661 78.55432122 -23.6489836 74.6280431 -23.68115234 70.70166016 C-23.68332449 69.53781107 -23.68549664 68.37396198 -23.6877346 67.17484474 C-23.70446189 65.59636285 -23.70446189 65.59636285 -23.7215271 63.98599243 C-23.72705786 63.06604303 -23.73258862 62.14609364 -23.73828697 61.19826698 C-23.79483136 58.792799 -23.79483136 58.792799 -26 57 C-28.5 56.66666667 -28.5 56.66666667 -31 57 C-34.05116635 60.05116635 -33.35808112 63.62721697 -33.4140625 67.7265625 C-33.43170654 68.49121826 -33.44935059 69.25587402 -33.4675293 70.04370117 C-33.53066189 72.90391902 -33.5768033 75.76449149 -33.625 78.625 C-33.810625 88.215625 -33.810625 88.215625 -34 98 C-47.86 98 -61.72 98 -76 98 C-75.78638406 93.40725734 -75.57188961 88.81484346 -75.34765625 84.22265625 C-75.15524482 80.26702193 -74.96781298 76.31123028 -74.78857422 72.35498047 C-74.59416326 68.06544686 -74.39196705 63.77632744 -74.18597412 59.48733521 C-74.10430614 57.75949015 -74.02520338 56.03152175 -73.9487915 54.30343628 C-72.7056509 26.31048931 -72.7056509 26.31048931 -62.5625 16.6875 C-56.38197309 12.61739691 -49.65952303 11.01316454 -42.54296875 9.3359375 C-41.55879471 9.09839752 -40.57462067 8.86085754 -39.56062317 8.61611938 C-36.43761377 7.86325644 -33.31270928 7.11867313 -30.1875 6.375 C-27.04477257 5.62287787 -23.90248501 4.86899873 -20.76081848 4.11245728 C-18.81056919 3.64325678 -16.85964716 3.17684218 -14.90800476 2.71347046 C-14.02981583 2.50300079 -13.15162689 2.29253113 -12.24682617 2.07568359 C-11.47296066 1.891539 -10.69909515 1.70739441 -9.90177917 1.51766968 C-3.18562535 -0.31048641 -3.18562535 -0.31048641 0 0 Z " fill="#6FD5F8" transform="translate(143,318)"/>
<path d="M0 0 C2.640625 1.453125 2.640625 1.453125 5.25 3.25 C23.73158906 15.42991516 45.4926115 20.49894442 67.4921875 16.28125 C71.08281531 15.35559959 74.51971447 14.27624463 78 13 C79.01707031 12.649375 80.03414063 12.29875 81.08203125 11.9375 C87.71232445 9.43484673 93.40872277 6.02711314 99.10571289 1.85864258 C101.9120919 -0.09896187 103.64563336 -0.99910739 107.1015625 -1.0078125 C111.6992496 0.5908442 114.19845567 2.71079043 116.765625 6.83984375 C117.25546875 7.86207031 117.7453125 8.88429688 118.25 9.9375 C119.00023437 11.46697266 119.00023437 11.46697266 119.765625 13.02734375 C121.89658231 18.1591745 122.13198997 22.78709518 122.16113281 28.32202148 C122.16609772 29.04153488 122.17106262 29.76104828 122.17617798 30.50236511 C122.19074061 32.87528457 122.19759483 35.24813699 122.203125 37.62109375 C122.20736607 38.84571666 122.20736607 38.84571666 122.21169281 40.09507942 C122.2266684 44.42300869 122.23590576 48.75090482 122.24023438 53.07885742 C122.24568964 57.51327881 122.26965947 61.94738857 122.29820633 66.38171291 C122.31699787 69.82134327 122.32204719 73.26090138 122.32357025 76.70057869 C122.32656466 78.33297475 122.33448202 79.96537054 122.34775543 81.59771538 C122.46643927 97.32723104 120.02194707 110.7575418 113 125 C112.63261719 125.77988281 112.26523437 126.55976563 111.88671875 127.36328125 C110.25579706 130.2277728 108.7034116 131.79696479 105.5234375 132.71484375 C103.61678731 133.03261878 101.70314009 133.31071059 99.78515625 133.55078125 C93.64011775 134.54191649 88.53779192 137.8403574 84 142 C82.16858057 145.13502307 82.16858057 145.13502307 80.625 148.5625 C77.41505401 154.72063672 77.41505401 154.72063672 73.75 157.1875 C71.89375 157.5896875 71.89375 157.5896875 70 158 C69.24460937 158.1959375 68.48921875 158.391875 67.7109375 158.59375 C48.31355884 163.04752879 28.8223603 159.22745243 11.84570312 149.19775391 C-5.07878841 138.21474393 -14.86622629 121.08860054 -19.52386475 101.83439636 C-20.10815127 98.35618385 -20.15548366 94.94651032 -20.16113281 91.4309082 C-20.16609772 90.68546249 -20.17106262 89.94001678 -20.17617798 89.17198181 C-20.19073707 86.71490541 -20.19759208 84.25789363 -20.203125 81.80078125 C-20.20595238 80.95730825 -20.20877975 80.11383526 -20.21169281 79.24480247 C-20.22666241 74.77883976 -20.23590518 70.31290914 -20.24023438 65.84692383 C-20.24570738 61.25517351 -20.26971697 56.66372146 -20.29820633 52.0720644 C-20.31692158 48.52279328 -20.32204308 44.97359263 -20.32357025 41.42427635 C-20.32657864 39.73275311 -20.33454515 38.04123057 -20.34775543 36.34975624 C-20.44220267 23.32400934 -19.62690272 12.40045379 -11 2 C-7.0608832 -1.34824928 -4.9127143 -1.17372731 0 0 Z " fill="#F7CFB3" transform="translate(167,108)"/>
<path d="M0 0 C1.00501053 -0.00852997 2.01002106 -0.01705994 3.04548645 -0.02584839 C4.13703033 -0.02494202 5.22857422 -0.02403564 6.35319519 -0.02310181 C7.51150345 -0.02981903 8.66981171 -0.03653625 9.86322021 -0.04345703 C13.69349962 -0.06245926 17.523604 -0.06636244 21.35392761 -0.06851196 C23.34459575 -0.07331396 25.33526393 -0.07811947 27.32593077 -0.08343279 C33.58535736 -0.09970226 39.84472645 -0.10460313 46.10417175 -0.10317993 C52.5475033 -0.10197932 58.99049944 -0.12306809 65.43374616 -0.15466726 C70.97704185 -0.18087776 76.52022833 -0.19154521 82.06358546 -0.19026911 C85.36931805 -0.1897608 88.67468657 -0.19722785 91.98037148 -0.21662521 C95.67133402 -0.23625461 99.36143709 -0.2304579 103.05241394 -0.21841431 C104.13788513 -0.22965332 105.22335632 -0.24089233 106.34172058 -0.25247192 C112.69939859 -0.19984638 117.61623667 0.55007721 122.89689636 4.26742554 C127.95213649 9.58873094 129.19671494 13.80115556 129.20329285 21.03012085 C129.21161636 21.80789383 129.21993988 22.58566681 129.22851562 23.38700867 C129.25259635 25.9565737 129.2613863 28.52588464 129.26799011 31.09555054 C129.27695951 32.88670934 129.28608142 34.67786738 129.29534912 36.46902466 C129.31183755 40.22492288 129.31953868 43.98073199 129.32243347 47.73666382 C129.3278102 52.53625588 129.36546116 57.33500347 129.41117764 62.13435745 C129.44100794 65.83540864 129.44815836 69.5362582 129.44915962 73.23741913 C129.45335183 75.00597746 129.46574587 76.77453695 129.48667717 78.54297638 C129.6684001 95.22761953 129.6684001 95.22761953 125.27008057 100.92483521 C120.26043937 105.82286405 115.78765945 107.38426003 108.98324585 107.40786743 C107.50086678 107.41643265 107.50086678 107.41643265 105.98854065 107.4251709 C104.91053192 107.42628876 103.83252319 107.42740662 102.72184753 107.42855835 C101.01145546 107.43600571 101.01145546 107.43600571 99.26651001 107.44360352 C95.49095559 107.45821926 91.71544318 107.46502604 87.93986511 107.47055054 C85.31676228 107.47630227 82.69365945 107.48206 80.07055664 107.48782349 C75.27175663 107.49738991 70.47296569 107.50328979 65.67415732 107.50632024 C58.62142986 107.51079912 51.56889639 107.52834234 44.5162279 107.55732083 C38.39839384 107.5815816 32.28063959 107.58926645 26.16275978 107.59099579 C23.56445065 107.59402225 20.96614233 107.6020505 18.36786461 107.61518097 C14.73180335 107.63224488 11.09621389 107.63036006 7.46012878 107.62387085 C5.85222473 107.63769302 5.85222473 107.63769302 4.21183777 107.65179443 C-3.98939664 107.60596984 -10.01815422 106.18334859 -16.10310364 100.26742554 C-18.96802449 95.59173074 -19.54050815 91.63200677 -19.50715637 86.2618103 C-19.51401962 85.48213898 -19.52088287 84.70246765 -19.5279541 83.89916992 C-19.54617559 81.33553582 -19.54239135 78.77251642 -19.53669739 76.20883179 C-19.54126146 74.41813459 -19.54656771 72.62743913 -19.55258179 70.83674622 C-19.56150377 67.08855054 -19.55910022 63.34056804 -19.54914856 59.59237671 C-19.53766058 54.79955252 -19.5578722 50.00746529 -19.5870657 45.21473789 C-19.60545072 41.51800395 -19.60513065 37.82144586 -19.59942818 34.12467766 C-19.59927524 32.35811263 -19.60529663 30.59153547 -19.61771965 28.82501411 C-19.63267165 26.35035687 -19.62192282 23.87705153 -19.60481262 21.4024353 C-19.61448059 20.67961868 -19.62414856 19.95680206 -19.6341095 19.21208191 C-19.55504024 13.72460291 -18.10169415 10.70114408 -15.10310364 6.26742554 C-10.57098305 1.96772139 -6.24238561 0.02405105 0 0 Z " fill="#F8637C" transform="translate(371.1031036376953,107.73257446289063)"/>
<path d="M0 0 C7.6842581 7.53284415 11.00247937 14.67657693 11.8125 25.3125 C12.28210267 29.57561174 12.97600148 31.82283453 16.4375 34.625 C18.23449288 35.1593908 20.05016483 35.6326936 21.875 36.0625 C26.07393865 37.08431619 28.86873744 37.93954996 31.44921875 41.68359375 C35.67803862 49.99080116 37.60393455 58.05689149 37.53515625 67.33203125 C37.53303383 68.42012337 37.53303383 68.42012337 37.53086853 69.53019714 C37.52529931 71.8326745 37.51275261 74.13505235 37.5 76.4375 C37.49498102 78.00455588 37.49041881 79.5716133 37.48632812 81.13867188 C37.47533998 84.96748589 37.45809673 88.79622611 37.4375 92.625 C33.8075 91.965 30.1775 91.305 26.4375 90.625 C26.34275391 89.46097656 26.34275391 89.46097656 26.24609375 88.2734375 C25.10615562 78.21798323 21.94196151 67.831119 14.4375 60.625 C14.4375 59.965 14.4375 59.305 14.4375 58.625 C8.37751943 55.36193354 2.32240114 53.35496969 -4.5625 54.625 C-8.1186592 56.29374784 -11.29162516 58.46081214 -14.5625 60.625 C-34.33872848 72.33574197 -53.22619019 75.23177695 -75.5625 69.625 C-84.22787353 66.89025959 -91.75226581 62.29326774 -99.41015625 57.515625 C-104.54384533 54.43668384 -108.71820212 54.11110484 -114.5625 54.625 C-121.63800378 56.79097054 -126.41215628 63.05012127 -130.11328125 69.203125 C-133.53424446 76.10559944 -134.75109662 83.00749658 -135.5625 90.625 C-141.0075 91.615 -141.0075 91.615 -146.5625 92.625 C-146.66314293 87.93349111 -146.73478117 83.24264193 -146.78222656 78.55029297 C-146.80205268 76.96196519 -146.82912221 75.37370741 -146.86425781 73.78564453 C-147.17177465 59.50420098 -145.66290279 45.97689097 -138.75 33.1875 C-138.40598145 32.5262915 -138.06196289 31.86508301 -137.70751953 31.18383789 C-134.86274075 25.86212838 -131.5255139 21.17723899 -127.5625 16.625 C-127.11777344 16.03847656 -126.67304688 15.45195313 -126.21484375 14.84765625 C-113.25862558 -1.81033854 -91.37668422 -9.53494631 -71.3125 -12.625 C-47.98269883 -15.44362329 -18.87892056 -16.17396444 0 0 Z " fill="#5A5C5F" transform="translate(272.5625,43.375)"/>
<path d="M0 0 C1.00501053 -0.00852997 2.01002106 -0.01705994 3.04548645 -0.02584839 C4.13703033 -0.02494202 5.22857422 -0.02403564 6.35319519 -0.02310181 C7.51150345 -0.02981903 8.66981171 -0.03653625 9.86322021 -0.04345703 C13.69349962 -0.06245926 17.523604 -0.06636244 21.35392761 -0.06851196 C23.34459575 -0.07331396 25.33526393 -0.07811947 27.32593077 -0.08343279 C33.58535736 -0.09970226 39.84472645 -0.10460313 46.10417175 -0.10317993 C52.5475033 -0.10197932 58.99049944 -0.12306809 65.43374616 -0.15466726 C70.97704185 -0.18087776 76.52022833 -0.19154521 82.06358546 -0.19026911 C85.36931805 -0.1897608 88.67468657 -0.19722785 91.98037148 -0.21662521 C95.67133402 -0.23625461 99.36143709 -0.2304579 103.05241394 -0.21841431 C104.13788513 -0.22965332 105.22335632 -0.24089233 106.34172058 -0.25247192 C112.69939859 -0.19984638 117.61623667 0.55007721 122.89689636 4.26742554 C127.95213649 9.58873094 129.19671494 13.80115556 129.20329285 21.03012085 C129.21161636 21.80789383 129.21993988 22.58566681 129.22851562 23.38700867 C129.25259635 25.9565737 129.2613863 28.52588464 129.26799011 31.09555054 C129.27695951 32.88670934 129.28608142 34.67786738 129.29534912 36.46902466 C129.31183755 40.22492288 129.31953868 43.98073199 129.32243347 47.73666382 C129.3278102 52.53625588 129.36546116 57.33500347 129.41117764 62.13435745 C129.44100794 65.83540864 129.44815836 69.5362582 129.44915962 73.23741913 C129.45335183 75.00597746 129.46574587 76.77453695 129.48667717 78.54297638 C129.6684001 95.22761953 129.6684001 95.22761953 125.27008057 100.92483521 C120.26043937 105.82286405 115.78765945 107.38426003 108.98324585 107.40786743 C107.50086678 107.41643265 107.50086678 107.41643265 105.98854065 107.4251709 C104.91053192 107.42628876 103.83252319 107.42740662 102.72184753 107.42855835 C101.01145546 107.43600571 101.01145546 107.43600571 99.26651001 107.44360352 C95.49095559 107.45821926 91.71544318 107.46502604 87.93986511 107.47055054 C85.31676228 107.47630227 82.69365945 107.48206 80.07055664 107.48782349 C75.27175663 107.49738991 70.47296569 107.50328979 65.67415732 107.50632024 C58.62142986 107.51079912 51.56889639 107.52834234 44.5162279 107.55732083 C38.39839384 107.5815816 32.28063959 107.58926645 26.16275978 107.59099579 C23.56445065 107.59402225 20.96614233 107.6020505 18.36786461 107.61518097 C14.73180335 107.63224488 11.09621389 107.63036006 7.46012878 107.62387085 C5.85222473 107.63769302 5.85222473 107.63769302 4.21183777 107.65179443 C-3.98939664 107.60596984 -10.01815422 106.18334859 -16.10310364 100.26742554 C-18.96802449 95.59173074 -19.54050815 91.63200677 -19.50715637 86.2618103 C-19.51401962 85.48213898 -19.52088287 84.70246765 -19.5279541 83.89916992 C-19.54617559 81.33553582 -19.54239135 78.77251642 -19.53669739 76.20883179 C-19.54126146 74.41813459 -19.54656771 72.62743913 -19.55258179 70.83674622 C-19.56150377 67.08855054 -19.55910022 63.34056804 -19.54914856 59.59237671 C-19.53766058 54.79955252 -19.5578722 50.00746529 -19.5870657 45.21473789 C-19.60545072 41.51800395 -19.60513065 37.82144586 -19.59942818 34.12467766 C-19.59927524 32.35811263 -19.60529663 30.59153547 -19.61771965 28.82501411 C-19.63267165 26.35035687 -19.62192282 23.87705153 -19.60481262 21.4024353 C-19.61448059 20.67961868 -19.62414856 19.95680206 -19.6341095 19.21208191 C-19.55504024 13.72460291 -18.10169415 10.70114408 -15.10310364 6.26742554 C-10.57098305 1.96772139 -6.24238561 0.02405105 0 0 Z M-8.10310364 14.26742554 C-9.58441456 17.23004739 -9.24680497 19.90183897 -9.26423645 23.20809937 C-9.26920135 23.92212418 -9.27416626 24.63614899 -9.27928162 25.37181091 C-9.29391342 27.73936927 -9.30070742 30.1068606 -9.30622864 32.47445679 C-9.3119799 34.11871849 -9.31773764 35.76298017 -9.32350159 37.40724182 C-9.33401491 40.85811679 -9.33985519 44.30896844 -9.34333801 47.75985718 C-9.34881899 52.17843571 -9.37283695 56.59670549 -9.40130997 61.01518726 C-9.41994997 64.41328323 -9.4251427 67.81130509 -9.42667389 71.20944786 C-9.42969862 72.83811821 -9.43772113 74.46678732 -9.45085907 76.09540749 C-9.46794606 78.37669845 -9.46603304 80.65723882 -9.45954895 82.93856812 C-9.46319458 84.2360347 -9.46684021 85.53350128 -9.47059631 86.87028503 C-9.07794503 90.49999436 -8.29906015 92.3840357 -6.10310364 95.26742554 C-3.67652265 96.48071603 -2.12203449 96.40116783 0.59022522 96.41459656 C1.58006409 96.42175186 2.56990295 96.42890717 3.58973694 96.4362793 C4.67964935 96.4389682 5.76956177 96.4416571 6.89250183 96.44442749 C8.03729004 96.45099869 9.18207825 96.45756989 10.36155701 96.46434021 C14.16239989 96.48410499 17.96320324 96.49574171 21.76408386 96.50570679 C23.05909946 96.50978231 24.35411507 96.51385784 25.68837357 96.51805687 C31.83290926 96.53677534 37.97742505 96.5513395 44.12198341 96.55966884 C51.21726753 96.56944558 58.31224003 96.5957766 65.40741432 96.63616973 C71.5508866 96.66994602 77.69422763 96.68181191 83.83778763 96.68587303 C86.45254253 96.69075702 89.06729367 96.70242203 91.68198776 96.72091103 C95.3357478 96.74514534 98.98868677 96.74436599 102.64250183 96.73739624 C103.72836578 96.7502063 104.81422974 96.76301636 105.93299866 96.7762146 C111.61413646 96.84533859 111.61413646 96.84533859 116.53779602 94.36305237 C119.05538704 90.48112318 119.04353627 87.98236229 119.08976746 83.32675171 C119.09794495 82.6127269 119.10612244 81.89870209 119.11454773 81.16304016 C119.13939938 78.79550009 119.15591716 76.42801996 119.17033386 74.06039429 C119.17831938 72.84789222 119.17831938 72.84789222 119.18646622 71.61089516 C119.213197 67.33227105 119.23257196 63.05367611 119.24699402 58.7749939 C119.26364072 54.35620785 119.30841805 49.93816781 119.35936546 45.51966381 C119.39302641 42.12156826 119.40457011 38.72365003 119.4102211 35.32540321 C119.41693699 33.69669202 119.43216801 32.06799262 119.45611191 30.43944359 C119.48774387 28.15777229 119.48780448 25.87811607 119.48039246 23.59628296 C119.49252274 21.65008308 119.49252274 21.65008308 119.50489807 19.66456604 C118.74205399 15.40226139 117.20784972 13.95919264 113.89689636 11.26742554 C111.5102001 10.0740774 110.03348161 10.13395679 107.36888123 10.12025452 C106.41558929 10.11309921 105.46229736 10.10594391 104.4801178 10.09857178 C103.43075043 10.09588287 102.38138306 10.09319397 101.30021667 10.09042358 C100.19765533 10.08385239 99.09509399 10.07728119 97.9591217 10.07051086 C94.29775429 10.05074425 90.63642796 10.03910771 86.97502136 10.02914429 C85.72663231 10.02506876 84.47824326 10.02099323 83.19202423 10.0167942 C77.26640034 9.99807328 71.34078955 9.98351097 65.41514325 9.97518224 C58.57909583 9.96541498 51.74337266 9.93911014 44.90743947 9.89868134 C38.98397681 9.86485383 33.06059336 9.85303478 27.13703156 9.84897804 C24.6188258 9.8441014 22.10062378 9.83245696 19.58248138 9.81394005 C16.05844216 9.78963745 12.53525124 9.79049793 9.01115417 9.79745483 C7.4492485 9.77823975 7.4492485 9.77823975 5.85578918 9.75863647 C-0.09765497 9.80149451 -3.5823585 10.26642916 -8.10310364 14.26742554 Z " fill="#020101" transform="translate(371.1031036376953,107.73257446289063)"/>
<path d="M0 0 C13.86 0 27.72 0 42 0 C42 25.08 42 50.16 42 76 C30.8934375 76.0309375 30.8934375 76.0309375 19.5625 76.0625 C17.2222876 76.071604 14.8820752 76.08070801 12.47094727 76.09008789 C10.62776751 76.09300694 8.78458712 76.09555552 6.94140625 76.09765625 C5.97489136 76.10277222 5.00837646 76.10788818 4.01257324 76.11315918 C3.09907104 76.11328003 2.18556885 76.11340088 1.24438477 76.11352539 C0.04858543 76.11685631 0.04858543 76.11685631 -1.17137146 76.12025452 C-3 76 -3 76 -4 75 C-4.11729955 72.01185673 -4.1622064 69.05519524 -4.15234375 66.06640625 C-4.15040512 65.13437881 -4.14846649 64.20235138 -4.14646912 63.24208069 C-4.06738564 52.56581126 -3.44798944 41.92583762 -2.77319336 31.27319336 C-2.55902189 27.88243467 -2.35602566 24.49112901 -2.15429688 21.09960938 C-2.02147553 18.9296481 -1.88803604 16.75972454 -1.75390625 14.58984375 C-1.6934462 13.58267807 -1.63298615 12.57551239 -1.57069397 11.53782654 C-1.48071388 10.13839561 -1.48071388 10.13839561 -1.38891602 8.71069336 C-1.33784195 7.89467148 -1.28676788 7.0786496 -1.23414612 6.23789978 C-1 4 -1 4 0 0 Z " fill="#F8CFB3" transform="translate(67,426)"/>
<path d="M0 0 C1.01449219 -0.00386719 2.02898437 -0.00773437 3.07421875 -0.01171875 C4.13253906 -0.00011719 5.19085938 0.01148438 6.28125 0.0234375 C7.33957031 0.01183594 8.39789063 0.00023437 9.48828125 -0.01171875 C11.01001953 -0.00591797 11.01001953 -0.00591797 12.5625 0 C13.9556543 0.00507568 13.9556543 0.00507568 15.37695312 0.01025391 C18.27276936 0.47779532 18.97957683 1.13538623 20.78125 3.3984375 C21.06210591 6.48702096 21.1597818 9.3716487 21.12182617 12.4597168 C21.12248329 13.85025772 21.12248329 13.85025772 21.12315369 15.26889038 C21.12106148 18.33702562 21.0977099 21.40461632 21.07421875 24.47265625 C21.06862434 26.598289 21.06435351 28.72392561 21.06135559 30.8495636 C21.04989468 36.4474249 21.02041665 42.04505313 20.98724365 47.64282227 C20.95656969 53.35364631 20.94285597 59.06450797 20.92773438 64.77539062 C20.89554821 75.98319186 20.84276998 87.19075885 20.78125 98.3984375 C11.21125 98.3984375 1.64125 98.3984375 -8.21875 98.3984375 C-8.28645599 86.06379467 -8.34152578 73.72927473 -8.37418652 61.39448833 C-8.38985993 55.6673004 -8.41112887 49.9402459 -8.44506836 44.21313477 C-8.4776019 38.68886308 -8.49559038 33.16471995 -8.50338173 27.64035988 C-8.50893604 25.5299661 -8.51978187 23.41957957 -8.53594017 21.30924034 C-8.5576345 18.359243 -8.56072027 15.40978073 -8.55932617 12.4597168 C-8.570112 11.58218246 -8.58089783 10.70464813 -8.5920105 9.80052185 C-8.56135914 3.82878305 -8.56135914 3.82878305 -6.84647083 1.67474079 C-4.5494828 -0.12633795 -2.8935777 0.01054218 0 0 Z " fill="#C0D0DD" transform="translate(361.21875,377.6015625)"/>
<path d="M0 0 C1.61068359 0.41572266 1.61068359 0.41572266 3.25390625 0.83984375 C4.69005529 1.20592096 6.12625599 1.57179558 7.5625 1.9375 C8.26697266 2.11990234 8.97144531 2.30230469 9.69726562 2.49023438 C23.06213909 5.8776447 35.55705991 5.67819378 48.91796875 2.65625 C52 2 52 2 55 2 C58.43242447 35.29979799 58.43242447 35.29979799 51.86386108 44.31558228 C47.55579967 49.43842454 42.38861375 53.65755731 36.94946289 57.52416992 C34.8851118 58.86045121 34.8851118 58.86045121 34 61 C31.4375 61.5 31.4375 61.5 28 61 C26.640625 59.7109375 26.640625 59.7109375 25.1875 57.875 C21.71752686 53.73290046 18.01370701 49.90641102 14.19140625 46.09375 C13.57619614 45.479552 12.96098602 44.865354 12.32713318 44.23254395 C10.40753499 42.31972956 8.48508854 40.40980826 6.5625 38.5 C5.24520941 37.18773415 3.92815014 35.87523605 2.61132812 34.5625 C-0.5897861 31.37231494 -3.79401865 28.18529349 -7 25 C-6.6913501 24.38519775 -6.3827002 23.77039551 -6.06469727 23.13696289 C-2.22999973 15.44030903 -0.32794305 8.6249022 0 0 Z " fill="#F6CDB1" transform="translate(188,273)"/>
<path d="M0 0 C1.12865982 -0.00983414 2.25731964 -0.01966827 3.42018127 -0.02980042 C4.654086 -0.02013245 5.88799072 -0.01046448 7.1592865 -0.00050354 C9.11340202 -0.00860802 9.11340202 -0.00860802 11.10699463 -0.01687622 C14.67726272 -0.03083609 18.24704921 -0.01965843 21.81729054 -0.00316501 C25.55282931 0.01068478 29.28834009 0.00422561 33.02389526 0.0007019 C39.29599268 -0.00199995 45.56789869 0.01147427 51.83995056 0.03465271 C59.09390567 0.06127401 66.34754099 0.06300586 73.60152823 0.05126435 C80.57797534 0.04049065 87.55430664 0.04666962 94.53074455 0.06081963 C97.50080028 0.06658185 100.47077133 0.06649495 103.44082832 0.06175423 C107.58543993 0.05610214 111.72957256 0.07528851 115.87413025 0.09715271 C117.72802368 0.09040024 117.72802368 0.09040024 119.61936951 0.08351135 C121.3081295 0.0983683 121.3081295 0.0983683 123.03100586 0.11352539 C124.01120728 0.11595529 124.99140871 0.11838518 126.00131321 0.12088871 C128.85912712 0.5643846 129.75282176 1.20136382 131.45201111 3.50120544 C131.88560486 5.62229919 131.88560486 5.62229919 131.88951111 7.93870544 C131.90884705 8.70054138 131.92818298 9.46237732 131.94810486 10.24729919 C131.25786095 13.38328923 129.91883267 14.48453612 127.45201111 16.50120544 C124.89388275 17.00457001 124.89388275 17.00457001 121.94871521 17.00914001 C120.27051445 17.02605896 120.27051445 17.02605896 118.55841064 17.0433197 C116.72393623 17.03117432 116.72393623 17.03117432 114.85240173 17.01878357 C112.915326 17.02929749 112.915326 17.02929749 110.93911743 17.0400238 C107.39978959 17.05825467 103.86092829 17.05119101 100.32159233 17.03850746 C96.61720907 17.02837839 92.91286567 17.03777287 89.20848083 17.04405212 C82.98766408 17.05132883 76.7670373 17.04174034 70.54624939 17.02268982 C63.3547393 17.00092084 56.16368281 17.00797221 48.9721837 17.02999544 C42.79710524 17.0481489 36.62216331 17.05070809 30.44706678 17.04024076 C26.75921156 17.03400546 23.07156954 17.03317099 19.38372803 17.04638672 C15.27275235 17.0600898 11.16255832 17.04109661 7.05162048 17.01878357 C5.82863754 17.02688049 4.6056546 17.03497742 3.34561157 17.0433197 C2.22681107 17.03204041 1.10801056 17.02076111 -0.04469299 17.00914001 C-1.01659828 17.00763191 -1.98850357 17.00612381 -2.98986053 17.00457001 C-6.27743057 16.35767274 -7.47198493 15.07371465 -9.54798889 12.50120544 C-10.07923889 10.50120544 -10.07923889 10.50120544 -10.04798889 8.50120544 C-10.06345764 7.51120544 -10.06345764 7.51120544 -10.07923889 6.50120544 C-8.68948899 1.26920581 -4.96678747 0.00106006 0 0 Z " fill="#ECF3FB" transform="translate(306.54798889160156,485.49879455566406)"/>
<path d="M0 0 C2.09758022 1.24194983 3.647838 2.53106045 5.38551331 4.23480225 C6.00908218 4.84238373 6.63265106 5.44996521 7.27511597 6.07595825 C8.26598457 7.05878281 8.26598457 7.05878281 9.27687073 8.0614624 C9.96166 8.73722321 10.64644928 9.41298401 11.35198975 10.10922241 C12.79443024 11.53717683 14.23409368 12.96794121 15.67115784 14.40130615 C17.87959945 16.5977997 20.10600349 18.77495341 22.33351135 20.9520874 C23.73244279 22.34156058 25.13026834 23.73214825 26.52687073 25.1239624 C27.19757095 25.77513031 27.86827118 26.42629822 28.55929565 27.09719849 C29.16710373 27.71108429 29.7749118 28.32497009 30.40113831 28.9574585 C30.94200577 29.49325531 31.48287323 30.02905212 32.04013062 30.58108521 C33.06983948 32.2255249 33.06983948 32.2255249 32.89801025 34.23910522 C31.48523685 37.62773105 28.81902916 39.98843293 26.25733948 42.5380249 C25.72302307 43.10070068 25.18870667 43.66337646 24.63819885 44.24310303 C23.05030823 45.83880615 23.05030823 45.83880615 20.06983948 48.2255249 C16.46916288 47.97857634 14.70005646 46.23046448 12.21925354 43.74725342 C11.10855499 42.64589806 11.10855499 42.64589806 9.97541809 41.52229309 C8.79239105 40.32545143 8.79239105 40.32545143 7.58546448 39.10443115 C6.76987061 38.28933578 5.95427673 37.47424042 5.1139679 36.63444519 C3.39236624 34.91050323 1.6744565 33.18286764 -0.0400238 31.45184326 C-2.67497117 28.79326081 -5.32302523 26.14828704 -7.97312927 23.50482178 C-9.64189272 21.83048324 -11.30988824 20.15537891 -12.97703552 18.47943115 C-13.77381714 17.68356094 -14.57059875 16.88769073 -15.39152527 16.06770325 C-16.11938232 15.33031418 -16.84723938 14.59292511 -17.59715271 13.83319092 C-18.24238892 13.18334732 -18.88762512 12.53350372 -19.55241394 11.8639679 C-20.93016052 10.2255249 -20.93016052 10.2255249 -20.93016052 8.2255249 C-17.85932315 6.65798822 -14.77196482 5.12623385 -11.68016052 3.6005249 C-10.80746521 3.15450928 -9.9347699 2.70849365 -9.03562927 2.2489624 C-8.19129333 1.8364624 -7.3469574 1.4239624 -6.47703552 0.9989624 C-5.70198669 0.61143799 -4.92693787 0.22391357 -4.12840271 -0.175354 C-1.93016052 -0.7744751 -1.93016052 -0.7744751 0 0 Z " fill="#99E2F6" transform="translate(173.93016052246094,304.77447509765625)"/>
<path d="M0 0 C0 17.49 0 34.98 0 53 C-11.06896976 51.77011447 -15.38804888 49.27679115 -22.5546875 41.16015625 C-27.17888824 34.24885082 -26.80829869 25.98194954 -26 18 C-23.47342569 10.01422048 -17.69231475 4.97802576 -10.5 1.125 C-7 0 -7 0 0 0 Z " fill="#F6CDB2" transform="translate(137,145)"/>
<path d="M0 0 C9.96099508 1.10677723 15.45082204 2.49640946 21.67578125 10.0234375 C26.71378789 17.54329402 26.82327637 24.14042357 26 33 C24.39178528 39.69132195 20.53515488 44.95346632 15 49 C9.8208805 51.73522249 5.90430234 53 0 53 C0 35.51 0 18.02 0 0 Z " fill="#F6CEB2" transform="translate(299,145)"/>
<path d="M0 0 C4.3197887 0.60188732 6.40415933 2.71907508 9.34545898 5.71142578 C9.8942421 6.25209686 10.44302521 6.79276794 11.00843811 7.349823 C12.16119909 8.49413918 13.30638205 9.64613377 14.44433594 10.80517578 C16.18964086 12.57508992 17.96688566 14.30757758 19.74975586 16.03955078 C20.86708598 17.15725132 21.98239315 18.27697858 23.09545898 19.39892578 C23.89523415 20.17274094 23.89523415 20.17274094 24.71116638 20.96218872 C27.13602122 23.48196327 28.23052148 24.92681525 28.39916992 28.46728516 C26.98448586 32.16165224 24.88626656 34.56075973 22.11889648 37.28955078 C21.34330635 38.07587387 21.34330635 38.07587387 20.55204773 38.87808228 C19.45955333 39.97833331 18.36066764 41.07227065 17.25585938 42.16015625 C15.57121693 43.82554703 13.91800279 45.51823061 12.26538086 47.21533203 C11.19749094 48.28351228 10.12788439 49.3499797 9.05639648 50.41455078 C8.32009758 51.17377335 8.32009758 51.17377335 7.56892395 51.94833374 C5.03676364 54.39719667 3.54777578 55.41391241 0.01806641 55.89355469 C-2.74438477 55.45361328 -2.74438477 55.45361328 -4.74438477 53.45361328 C-5.14282227 51.13256836 -5.14282227 51.13256836 -4.74438477 48.45361328 C-2.90844727 46.05004883 -2.90844727 46.05004883 -0.36938477 43.59033203 C0.53295898 42.70410156 1.43530273 41.81787109 2.36499023 40.90478516 C3.31889648 39.99277344 4.27280273 39.08076172 5.25561523 38.14111328 C6.22029326 37.20152336 7.18384909 36.26077981 8.14624023 35.31884766 C10.50522656 33.01883599 12.8750731 30.73127294 15.25561523 28.45361328 C12.17881639 24.75198759 9.08655174 21.2113174 5.60717773 17.88330078 C4.99487305 17.29677734 4.38256836 16.71025391 3.75170898 16.10595703 C2.48806862 14.90563059 1.21700827 13.71307442 -0.06079102 12.52783203 C-4.61448043 8.12949236 -4.61448043 8.12949236 -5.28344727 4.64892578 C-4.4561057 1.27960722 -3.38480754 0.55946734 0 0 Z " fill="#040102" transform="translate(450.744384765625,133.54638671875)"/>
<path d="M0 0 C2.74438477 0.45361328 2.74438477 0.45361328 4.74438477 2.45361328 C5.14282227 4.7746582 5.14282227 4.7746582 4.74438477 7.45361328 C2.90844727 9.85717773 2.90844727 9.85717773 0.36938477 12.31689453 C-0.53295898 13.203125 -1.43530273 14.08935547 -2.36499023 15.00244141 C-3.31889648 15.91445312 -4.27280273 16.82646484 -5.25561523 17.76611328 C-6.22029326 18.7057032 -7.18384909 19.64644675 -8.14624023 20.58837891 C-10.50522656 22.88839058 -12.8750731 25.17595362 -15.25561523 27.45361328 C-12.17881639 31.15523897 -9.08655174 34.69590916 -5.60717773 38.02392578 C-4.99487305 38.61044922 -4.38256836 39.19697266 -3.75170898 39.80126953 C-2.48806862 41.00159597 -1.21700827 42.19415214 0.06079102 43.37939453 C4.61448043 47.7777342 4.61448043 47.7777342 5.28344727 51.25830078 C4.74438477 53.45361328 4.74438477 53.45361328 2.74438477 55.45361328 C-0.01806641 55.89355469 -0.01806641 55.89355469 -3.25561523 55.45361328 C-5.46641886 53.82895769 -7.17237792 52.35722569 -9.05639648 50.41455078 C-9.5782402 49.89607574 -10.10008392 49.37760071 -10.63774109 48.84341431 C-11.7348843 47.74597281 -12.8246001 46.64106169 -13.90722656 45.52929688 C-15.56128018 43.8356121 -17.24262331 42.17318957 -18.92944336 40.51220703 C-19.99435549 39.43973409 -21.05756607 38.36556835 -22.11889648 37.28955078 C-22.61988358 36.79554779 -23.12087067 36.3015448 -23.63703918 35.79257202 C-25.86281729 33.47512578 -27.24754817 31.47467995 -28.39916992 28.46728516 C-28.19560312 24.19376721 -26.02359205 22.23201419 -23.09545898 19.39892578 C-22.55337296 18.85251434 -22.01128693 18.30610291 -21.45277405 17.74313354 C-20.30350252 16.59348102 -19.14547687 15.45252262 -17.97949219 14.31982422 C-16.20055201 12.58586203 -14.45885407 10.81996296 -12.71850586 9.04736328 C-11.59622148 7.93330044 -10.47193486 6.82125025 -9.34545898 5.71142578 C-8.82644516 5.18340363 -8.30743134 4.65538147 -7.77268982 4.11135864 C-5.17255502 1.62560782 -3.60307724 0.50202606 0 0 Z " fill="#040102" transform="translate(401.255615234375,133.54638671875)"/>
<path d="M0 0 C1.9375 1 1.9375 1 3 3 C3.23595284 5.71882023 3.13477523 8.25957022 3 11 C4.258125 10.938125 5.51625 10.87625 6.8125 10.8125 C9.37705844 10.83065617 10.71463773 10.8484013 13 12.0625 C14.58433618 15.13215135 14.36248449 17.61681143 14 21 C13 22.9375 13 22.9375 11 24 C8.28117977 24.23595284 5.74042978 24.13477523 3 24 C3.061875 25.258125 3.12375 26.51625 3.1875 27.8125 C3.16934383 30.37705844 3.1515987 31.71463773 1.9375 34 C-1.13215135 35.58433618 -3.61681143 35.36248449 -7 35 C-8.9375 34 -8.9375 34 -10 32 C-10.23595284 29.28117977 -10.13477523 26.74042978 -10 24 C-10.62648438 24.02320313 -11.25296875 24.04640625 -11.8984375 24.0703125 C-13.12433594 24.09738281 -13.12433594 24.09738281 -14.375 24.125 C-15.59316406 24.15980469 -15.59316406 24.15980469 -16.8359375 24.1953125 C-19 24 -19 24 -21 22 C-21.54794521 15.09589041 -21.54794521 15.09589041 -20 12 C-16.72032242 10.36016121 -13.62861311 10.82154362 -10 11 C-10.061875 9.741875 -10.12375 8.48375 -10.1875 7.1875 C-10.16934383 4.62294156 -10.1515987 3.28536227 -8.9375 1 C-5.86784865 -0.58433618 -3.38318857 -0.36248449 0 0 Z " fill="#FC647D" transform="translate(33,149)"/>
<path d="M0 0 C3.0625 0.1875 3.0625 0.1875 5.0625 2.1875 C5.39073972 8.74611793 2.98412688 15.05050723 0.8125 21.125 C-1.56800318 27.99190652 -3.75524845 34.8514844 -5.625 41.875 C-10.01725037 58.26725037 -10.01725037 58.26725037 -12.9375 61.1875 C-15.875 61.4375 -15.875 61.4375 -18.9375 61.1875 C-21.20612768 57.78455848 -21.15175852 57.42842661 -20.4375 53.625 C-19.23757941 47.75615761 -17.35219299 42.18213826 -15.39916992 36.53173828 C-12.99971358 29.54689553 -10.96978397 22.48109241 -9.03027344 15.35595703 C-4.86802113 0.31072475 -4.86802113 0.31072475 0 0 Z " fill="#070203" transform="translate(433.9375,130.8125)"/>
<path d="M0 0 C4.77449449 0.46962241 6.36227813 2.15479292 9.8125 5.375 C15.10921163 8.80020685 21.78603342 8.04167374 27.8125 7.375 C32.14596723 5.77595654 35.55400496 3.63349504 38.8125 0.375 C41.8125 0.0625 41.8125 0.0625 44.8125 0.375 C46.8125 3.375 46.8125 3.375 46.875 5.6875 C44.91109125 10.6550339 41.04359475 13.18630198 36.4296875 15.64453125 C28.15851843 19.1381743 18.82486272 19.99504586 10.1015625 17.64453125 C5.19599469 15.5935686 -1.76218867 12.22562266 -4.1875 7.375 C-4.3125 4.3125 -4.3125 4.3125 -4.1875 1.375 C-3.1875 0.375 -3.1875 0.375 0 0 Z " fill="#070605" transform="translate(198.1875,212.625)"/>
<path d="M0 0 C0.66 0 1.32 0 2 0 C2.20753906 0.58007812 2.41507812 1.16015625 2.62890625 1.7578125 C5.57870569 9.23722028 9.53467116 13.63813557 16.9375 16.875 C17.948125 17.24625 18.95875 17.6175 20 18 C20 18.66 20 19.32 20 20 C19.33613281 20.21914063 18.67226563 20.43828125 17.98828125 20.6640625 C11.1489658 23.12022542 7.34823175 25.25580821 4.0390625 31.94140625 C3.30630784 33.6052299 2.64579708 35.30053401 2 37 C1.34 37 0.68 37 0 37 C-0.81567174 35.56429734 -1.62742093 34.12636566 -2.4375 32.6875 C-2.88996094 31.88699219 -3.34242188 31.08648437 -3.80859375 30.26171875 C-5 28 -5 28 -6 25 C-9.60132709 22.69515066 -14.00536651 21.46469895 -18 20 C-18 19.34 -18 18.68 -18 18 C-17.33613281 17.70867188 -16.67226563 17.41734375 -15.98828125 17.1171875 C-7.31086639 13.08884016 -3.40367489 8.95703918 0 0 Z " fill="#F5C84C" transform="translate(421,42)"/>
<path d="M0 0 C2.87029869 1.79393668 4.49131638 2.98263276 6 6 C6.17199251 9.80626901 6.04130648 13.51630842 3.8046875 16.703125 C1.35792503 18.9321128 -0.7656623 19.95606168 -4 20.5625 C-7.76990419 19.85564296 -10.00967755 18.364441 -13 16 C-14.74601232 12.50797535 -14.55838804 8.81017721 -14 5 C-10.48991881 -0.54819285 -6.12196123 -1.23104655 0 0 Z " fill="#050404" transform="translate(189,165)"/>
<path d="M0 0 C3.0625 1.9375 3.0625 1.9375 5 5 C5.69022545 8.15450142 5.73034598 10.85038296 5 14 C2.10799895 17.65305395 -0.11040837 19.74232841 -4.75 20.375 C-8.25406902 19.97068434 -10.2017089 19.03458907 -12.79296875 16.62109375 C-15.01359596 13.63869798 -15.44888471 10.64807888 -15 7 C-11.31496208 0.01113498 -7.5633454 -1.10842131 0 0 Z " fill="#050404" transform="translate(258,165)"/>
<path d="M0 0 C3 1 3 1 4.6875 4.3125 C7.02343781 8.76452265 10.45500204 10.2239207 15 12 C14 14 14 14 11.1875 15.3125 C7.71385004 17.15149116 6.24659417 18.82378065 4 22 C3.00270658 23.33535898 2.00316209 24.6690441 1 26 C0.64808594 25.38511719 0.29617187 24.77023438 -0.06640625 24.13671875 C-3.45164707 18.59482321 -5.73353153 15.87994054 -12 14 C-12 13.34 -12 12.68 -12 12 C-10.35546875 10.8515625 -10.35546875 10.8515625 -8.1875 9.625 C-3.8257467 7.00486551 -1.63097275 4.89291826 0 0 Z " fill="#70D6F9" transform="translate(86,46)"/>
<path d="M0 0 C0 8.25 0 16.5 0 25 C-9.83783784 16.56756757 -9.83783784 16.56756757 -12 14 C-11.85460064 9.76524369 -8.88389893 7.55196998 -6 4.75 C-5.0925 3.85796875 -4.185 2.9659375 -3.25 2.046875 C-1 0 -1 0 0 0 Z " fill="#98E0F4" transform="translate(243,326)"/>
<path d="M0 0 C2.6923481 2.18753283 2.93936827 3.58423955 3.4375 7 C3 10 3 10 1.375 12.375 C-1.69477548 14.4753727 -3.34556561 14.53293835 -7 14 C-9.375 13 -9.375 13 -11 11 C-11.65964122 7.44238446 -11.63041883 4.26083766 -10 1 C-6.73916234 -0.63041883 -3.55761554 -0.65964122 0 0 Z " fill="#F5C84C" transform="translate(51,273)"/>
<path d="M0 0 C2.6923481 2.18753283 2.93936827 3.58423955 3.4375 7 C3 10 3 10 1.375 12.375 C-1.69477548 14.4753727 -3.34556561 14.53293835 -7 14 C-9.375 13 -9.375 13 -11 11 C-11.65964122 7.44238446 -11.63041883 4.26083766 -10 1 C-6.73916234 -0.63041883 -3.55761554 -0.65964122 0 0 Z " fill="#86D147" transform="translate(339,0)"/>
</svg>
